<?xml version="1.0" encoding="utf-8"?>
<!-- Generator: Adobe Illustrator 30.2.1, SVG Export Plug-In . SVG Version: 9.03 Build 0)  -->
<svg version="1.1" xmlns="http://www.w3.org/2000/svg" xmlns:xlink="http://www.w3.org/1999/xlink" x="0px" y="0px"
	 viewBox="0 0 1024 1024" style="enable-background:new 0 0 1024 1024;" xml:space="preserve">
<g>
</g>
<g id="_x32___x2013__Layer">
	<g>
		<path d="M519.0820312,164.5849609c44.0332031,0,83.5253906,7.550293,118.4472656,22.6508789
			c34.9199219,15.1010742,62.7617188,35.5546875,83.5253906,61.347168
			c20.7636719,25.8071289,31.1445312,54.7402344,31.1445312,86.8295898c0,27.0605469-8.1835938,51.9086914-24.5371094,74.5600586
			c-16.3691406,22.6513672-39.9648438,41.8515625-70.7851562,57.5717773
			c49.0761719,13.847168,87.4472656,38.2236328,115.1425781,73.1450195
			c27.6796875,34.9199219,41.5273438,75.9755859,41.5273438,123.1660156c0,40.9072266-10.7070312,77.0810547-32.0898438,108.5361328
			c-21.3964844,31.4697266-50.9648438,56.0087891-88.7167969,73.6162109
			c-37.7519531,17.6230469-81.4902344,26.4267578-131.1875,26.4267578H215.1787109
			c-9.4384766,0-14.1572266-4.71875-14.1572266-14.1572266v-28.3134766c0-9.4384766,4.71875-14.1572266,14.1572266-14.1572266
			c46.5556641,0,69.8408203-29.8769531,69.8408203-89.6611328V310.8735352
			c0-59.7685547-23.2851562-89.6606445-69.8408203-89.6606445c-9.4384766,0-14.1572266-4.7192383-14.1572266-14.1572266v-28.3139648
			c0-9.4379883,4.71875-14.1567383,14.1572266-14.1567383H519.0820312z M488.8798828,449.6123047
			c39.0048828,0,69.0458984-10.0576172,90.1337891-30.2016602c21.0722656-20.1293945,31.6171875-48.1337891,31.6171875-83.9980469
			s-10.3828125-63.8540039-31.1464844-83.9980469c-20.7636719-20.1293945-49.7109375-30.2016602-86.8291016-30.2016602h-57.5722656
			v228.3994141H488.8798828z M520.96875,815.8066406c47.8105469,0,84.9433594-13.3603516,111.3691406-40.1113281
			c26.4257812-26.7363281,39.6386719-64.0166016,39.6386719-111.8398438c0-98.15625-60.7265625-147.2333984-182.1533203-147.2333984
			h-54.7402344v209.5234375c0,28.9482422,5.3388672,51.1279297,16.0449219,66.5380859
			c10.6914062,15.4248047,26.1015625,23.1230469,46.2460938,23.1230469H520.96875z"/>
	</g>
</g>
</svg>
