<?xml version="1.0" encoding="utf-8"?>
<!-- Generator: Adobe Illustrator 30.2.1, SVG Export Plug-In . SVG Version: 9.03 Build 0)  -->
<svg version="1.1" xmlns="http://www.w3.org/2000/svg" xmlns:xlink="http://www.w3.org/1999/xlink" x="0px" y="0px"
	 viewBox="0 0 1024 1024" style="enable-background:new 0 0 1024 1024;" xml:space="preserve">
<g>
</g>
<g id="_x31___x2013__Layer">
	<g>
		<g>
			<path d="M130.4584961,806.0947266V350.7216797c0-2.9042969,0.2202148-5.6464844,0.6708984-8.2207031
				c0.4458008-2.5693359,1.5625-5.3115234,3.355957-8.2216797c10.0668945-17.2246094,24.8325195-33.1640625,44.2954102-47.8193359
				c19.4633789-14.6503906,42.3349609-26.3955078,68.625-35.2353516
				c26.284668-8.8349609,54.9760742-13.2548828,86.0742188-13.2548828c36.2421875,0,69.40625,6.5429688,99.4975586,19.6308594
				c30.0864258,13.0869141,53.7446289,30.0341797,70.9741211,50.8388672
				c16.7788086-20.8046875,40.2114258-37.7519531,70.3032227-50.8388672
				c30.0859375-13.0878906,63.4755859-19.6308594,100.1679688-19.6308594c30.6474609,0,59.1132812,4.4199219,85.4033203,13.2548828
				c26.2851562,8.8398438,49.2138672,20.5849609,68.7929688,35.2353516
				c19.5732422,14.6552734,34.28125,30.5947266,44.1279297,47.8193359c1.7880859,2.9101562,2.9042969,5.6523438,3.3554688,8.2216797
				c0.4462891,2.5742188,0.6708984,5.3164062,0.6708984,8.2207031v455.3730469
				c0,13.8691406-3.8583984,23.8261719-11.5771484,29.8662109c-7.7177734,6.0400391-16.6103516,9.0605469-26.6777344,9.0605469
				c-5.8203125,0-11.4091797-1.4003906-16.7783203-4.1953125c-5.3691406-2.7998047-11.2998047-6.3232422-17.7861328-10.5703125
				c-18.3457031-12.53125-38.5380859-22.3730469-60.5703125-29.5302734
				c-22.0380859-7.1621094-44.5791016-10.6230469-67.6181641-10.4023438
				c-24.3867188,0.2246094-48.1025391,4.75-71.1416016,13.5908203
				c-23.0449219,8.8349609-43.9599609,22.3154297-62.7519531,40.4365234
				c-7.1630859,6.7109375-13.7587891,11.4091797-19.7988281,14.09375c-6.0410156,2.6845703-12.081543,4.0263672-18.121582,4.0263672
				c-6.4912109,0-12.6416016-1.3417969-18.4570312-4.0263672c-5.8198242-2.6845703-12.53125-7.3828125-20.1342773-14.09375
				c-18.5717773-18.1210938-39.4296875-31.6015625-62.5844727-40.4365234
				c-23.1542969-8.8408203-46.7021484-13.3662109-70.6376953-13.5908203
				c-23.4902344-0.2207031-46.1992188,3.2402344-68.121582,10.4023438
				c-21.9277344,7.1572266-42.1723633,16.9990234-60.7387695,29.5302734
				c-6.4912109,4.2470703-12.4160156,7.7705078-17.7856445,10.5703125
				c-5.3691406,2.7949219-10.8535156,4.1953125-16.4428711,4.1953125c-10.2924805,0-19.2954102-3.0205078-27.0136719-9.0605469
				S130.4584961,819.9638672,130.4584961,806.0947266z M185.4921875,776.9003906
				c17.6704102-12.7519531,39.4301758-22.8720703,65.269043-30.3701172
				c25.8393555-7.4921875,53.4086914-11.2412109,82.71875-11.2412109c18.3413086,0,36.2944336,2.0136719,53.8598633,6.0400391
				c17.5600586,4.0273438,33.8925781,9.6210938,48.9936523,16.7783203
				c15.1005859,7.1630859,28.355957,15.2167969,39.765625,24.1621094V360.4541016
				c-11.8608398-20.3554688-30.7050781-36.6875-56.5444336-48.9941406
				c-25.8388672-12.3007812-54.5307617-18.4560547-86.074707-18.4560547c-20.8051758,0-40.7192383,2.7421875-59.7319336,8.2207031
				c-19.0175781,5.4853516-36.2416992,13.1455078-51.6782227,22.9873047
				c-15.4365234,9.8466797-27.6323242,21.2568359-36.5776367,34.2285156V776.9003906z M531.1337891,782.2695312
				c11.4091797-8.9453125,24.7167969-16.9990234,39.9326172-24.1621094
				c15.2109375-7.1572266,31.5439453-12.7509766,48.9941406-16.7783203
				c17.4492188-4.0263672,35.5703125-6.0400391,54.3623047-6.0400391c28.859375,0,56.2089844,3.7490234,82.0478516,11.2412109
				c25.8388672,7.4980469,47.59375,17.6181641,65.2695312,30.3701172V358.4404297
				c-8.9511719-12.9716797-21.0888672-24.3818359-36.4101562-34.2285156
				c-15.3261719-9.8417969-32.5507812-17.5019531-51.6787109-22.9873047
				c-19.1269531-5.4785156-38.8740234-8.2207031-59.2285156-8.2207031c-31.9941406,0-60.90625,6.1552734-86.7451172,18.4560547
				c-25.8398438,12.3066406-44.6894531,28.6386719-56.5439453,48.9941406V782.2695312z"/>
		</g>
	</g>
</g>
</svg>
