<?xml version="1.0" encoding="utf-8"?>
<!-- Generator: Adobe Illustrator 30.2.1, SVG Export Plug-In . SVG Version: 9.03 Build 0)  -->
<svg version="1.1" xmlns="http://www.w3.org/2000/svg" xmlns:xlink="http://www.w3.org/1999/xlink" x="0px" y="0px"
	 viewBox="0 0 1024 1024" style="enable-background:new 0 0 1024 1024;" xml:space="preserve">
<g>
</g>
<g id="_x31___x2013__Layer">
	<g>
		<path d="M489.8232727,516.6220703h-13.7241211v265.6473999c-11.0205078-8.6399536-23.7623291-16.4481201-38.2260437-23.4255371
			c2.5991211,13.5783081,7.0156555,24.8591919,13.2547913,33.8397217
			c10.6914062,15.4247437,26.1016541,23.1229248,46.2460938,23.1229248h23.5948792
			c47.8103638,0,84.9432373-13.3602295,111.3690796-40.1113281c11.2644653-11.3968506,20.1290894-24.7121582,26.5919189-39.9407349
			c-13.3065186,0.8075562-26.2637939,2.6658936-38.8693848,5.574585
			c-17.4501953,4.0274048-33.7832031,9.6211548-48.9941406,16.7783203
			c-15.2157593,7.1630859-28.5233154,15.2168579-39.9326782,24.1620483V518.7664185
			C518.2492676,517.3372192,504.4754028,516.6220703,489.8232727,516.6220703 M582.3179321,254.2801666
			c-2.7144165,1.0557404-5.4003906,2.1617584-8.0630493,3.3200226
			c-30.0917358,13.0873718-53.5244141,30.0340576-70.3031921,50.8392029
			c-16.8257751-20.3175049-39.7814941-36.9550171-68.8685913-49.912323v61.325531
			c18.006897,11.0383301,31.6759338,24.5719299,41.0160522,40.6011047v89.1585999h12.7807617
			c15.5005188,0,29.5838318-1.5879517,42.2537537-4.7664795v-84.3921204
			c11.8544922-20.3551636,30.7042236-36.6875,56.5440063-48.9936829c6.4029541-3.0482178,12.9933472-5.7186279,19.7738647-8.0119629
			C603.2456665,283.9013367,594.8674316,267.5129395,582.3179321,254.2801666 M268.7062378,245.1550446
			c-7.2669373,1.7158966-14.3683777,3.7394104-21.3005219,6.0695953
			c-26.289978,8.8397827-49.1616058,20.5849609-68.6249695,35.2348938
			c-19.4629364,14.6552124-34.2285461,30.594635-44.2955017,47.8192139
			c-1.793457,2.9102173-2.9100037,5.6523438-3.3557892,8.2216797c-0.4508362,2.5742188-0.67099,5.3165283-0.67099,8.221283
			v455.3730774c0,13.8692017,3.8588715,23.8261719,11.5772705,29.8661499
			c7.7181854,6.0401611,16.7210541,9.0605469,27.0136414,9.0605469c5.5893402,0,11.0737762-1.4003296,16.4427338-4.1953125
			c4.7410431-2.4721069,9.9150391-5.5083618,15.5294342-9.1085815v-1.7536011
			c0-9.4385986,4.7186279-14.1574097,14.1571808-14.1574097c5.2113647,0,10.1303711-0.3742676,14.7585449-1.1230469
			c9.1748505-4.5899658,18.7003326-8.6209106,28.5752716-12.0926514
			c15.5319824-12.4265747,24.2399292-33.6226807,26.1192322-63.5822754
			c-11.6036072,1.8313599-22.8922119,4.338562-33.8704834,7.5217896
			c-25.8389282,7.4979858-47.5986023,17.618103-65.2691803,30.3700562V358.4398804
			c8.9453583-12.9717102,21.1411591-24.3812866,36.5777588-34.2285461
			c15.4365845-9.8417358,32.6607056-17.50177,51.6780548-22.9866333c3.6032104-1.0383606,7.2400818-1.9787598,10.907959-2.8204956
			C283.2745972,275.6037598,277.9579163,257.8540039,268.7062378,245.1550446 M714.2721558,240.6262817
			c2.3386841,2.5928955,4.6002197,5.2459106,6.7825317,7.9567871c14.2876587,17.7581177,23.6587524,36.9945984,28.114624,57.7229004
			c13.0437622,4.8331299,25.09729,10.8009644,36.1607056,17.905365
			c15.3213501,9.8472595,27.4589844,21.2568359,36.4102783,34.2285461v418.4605713
			c-9.4431152-6.8126221-20.052002-12.8746948-31.8243408-18.1864624
			c-2.6043091,4.6537476-5.4244995,9.2139893-8.4588623,13.6776733
			c-7.9349365,11.6705933-16.991333,22.3856201-27.1746216,32.1497803
			c17.835083,6.7081299,34.3939209,15.2789307,49.6715698,25.7144775
			c6.4864502,4.2468872,12.4170532,7.7703857,17.7862549,10.5702515c5.3689575,2.7949829,10.9578857,4.1953125,16.7783203,4.1953125
			c10.0674438,0,18.9598999-3.0203857,26.6776123-9.0605469c7.7188721-6.039978,11.5772705-15.9969482,11.5772705-29.8661499
			V350.7217102c0-2.9047546-0.2247314-5.6470642-0.6709595-8.221283c-0.4512939-2.5693359-1.5673828-5.3114624-3.3553467-8.2216797
			c-9.8468018-17.2245789-24.5546875-33.1640015-44.1280518-47.8192139
			c-19.5790405-14.6499329-42.5077515-26.3951111-68.7929077-35.2348938
			C745.3059692,246.3447876,730.1207275,242.811615,714.2721558,240.6262817"/>
		<g>
			<defs>
				<polyline id="SVGID_1_" points="201.0215454,164.5849304 813.546936,164.5849304 813.546936,872.4346313 
					201.0215454,872.4346313 201.0215454,164.5849304 				"/>
			</defs>
			<clipPath id="SVGID_00000042702666270932606030000000032509393585635732_">
				<use xlink:href="#SVGID_1_"  style="overflow:visible;"/>
			</clipPath>
		</g>
	</g>
</g>
</svg>
